HIERARCHY
ROOT Hips
{
	OFFSET 0.000000 0.000000 0.000000
	CHANNELS 6 Xposition Yposition Zposition Zrotation Yrotation Xrotation 
	JOINT LHipJoint
	{
		OFFSET 0.000000 0.000000 0.000000
		CHANNELS 3 Zrotation Yrotation Xrotation
		JOINT LeftUpLeg
		{
			OFFSET 1.363060 -1.794630 0.839290
			CHANNELS 3 Zrotation Yrotation Xrotation
			JOINT LeftLeg
			{
				OFFSET 2.448110 -6.726130 0.000000
				CHANNELS 3 Zrotation Yrotation Xrotation
				JOINT LeftFoot
				{
					OFFSET 2.562200 -7.039590 0.000000
					CHANNELS 3 Zrotation Yrotation Xrotation
					JOINT LeftToeBase
					{
						OFFSET 0.157640 -0.433110 2.322550
						CHANNELS 3 Zrotation Yrotation Xrotation
						End Site
						{
							OFFSET 0.000000 0.000000 0.000000
						}
					}
				}
			}
		}
	}
	JOINT RHipJoint
	{
		OFFSET 0.000000 0.000000 0.000000
		CHANNELS 3 Zrotation Yrotation Xrotation
		JOINT RightUpLeg
		{
			OFFSET -1.305520 -1.794630 0.839290
			CHANNELS 3 Zrotation Yrotation Xrotation
			JOINT RightLeg
			{
				OFFSET -2.542530 -6.985550 0.000000
				CHANNELS 3 Zrotation Yrotation Xrotation
				JOINT RightFoot
				{
					OFFSET -2.568260 -7.056230 0.000000
					CHANNELS 3 Zrotation Yrotation Xrotation
					JOINT RightToeBase
					{
						OFFSET -0.164730 -0.452590 2.363150
						CHANNELS 3 Zrotation Yrotation Xrotation
						End Site
						{
							OFFSET 0.000000 0.000000 0.000000
						}
					}
				}
			}
		}
	}
	JOINT LowerBack
	{
		OFFSET 0.000000 0.000000 0.000000
		CHANNELS 3 Zrotation Yrotation Xrotation
		JOINT Spine
		{
			OFFSET 0.028270 2.035590 -0.193380
			CHANNELS 3 Zrotation Yrotation Xrotation
			JOINT Spine1
			{
				OFFSET 0.056720 2.048850 -0.042750
				CHANNELS 3 Zrotation Yrotation Xrotation
				JOINT Neck
				{
					OFFSET 0.000000 0.000000 0.000000
					CHANNELS 3 Zrotation Yrotation Xrotation
					JOINT Neck1
					{
						OFFSET -0.054170 1.746240 0.172020
						CHANNELS 3 Zrotation Yrotation Xrotation
						JOINT Head
						{
							OFFSET 0.104070 1.761360 -0.123970
							CHANNELS 3 Zrotation Yrotation Xrotation
							End Site
							{
								OFFSET 0.000000 0.000000 0.000000
							}
						}
					}
				}
				JOINT LeftShoulder
				{
					OFFSET 0.000000 0.000000 0.000000
					CHANNELS 3 Zrotation Yrotation Xrotation
					JOINT LeftArm
					{
						OFFSET 3.362410 1.200890 -0.311210
						CHANNELS 3 Zrotation Yrotation Xrotation
						JOINT LeftForeArm
						{
							OFFSET 4.983000 -0.000000 -0.000000
							CHANNELS 3 Zrotation Yrotation Xrotation
							JOINT LeftHand
							{
								OFFSET 3.483560 -0.000000 -0.000000
								CHANNELS 3 Zrotation Yrotation Xrotation
								JOINT LeftFingerBase
								{
									OFFSET 0.000000 0.000000 0.000000
									CHANNELS 3 Zrotation Yrotation Xrotation
									JOINT LeftHandIndex1
									{
										OFFSET 0.715260 -0.000000 -0.000000
										CHANNELS 3 Zrotation Yrotation Xrotation
										End Site
										{
											OFFSET 0.000000 0.000000 0.000000
										}
									}
								}
								JOINT LThumb
								{
									OFFSET 0.000000 0.000000 0.000000
									CHANNELS 3 Zrotation Yrotation Xrotation
									End Site
									{
										OFFSET 0.000000 0.000000 0.000000
									}
								}
							}
						}
					}
				}
				JOINT RightShoulder
				{
					OFFSET 0.000000 0.000000 0.000000
					CHANNELS 3 Zrotation Yrotation Xrotation
					JOINT RightArm
					{
						OFFSET -3.136600 1.374050 -0.404650
						CHANNELS 3 Zrotation Yrotation Xrotation
						JOINT RightForeArm
						{
							OFFSET -5.241900 -0.000000 -0.000000
							CHANNELS 3 Zrotation Yrotation Xrotation
							JOINT RightHand
							{
								OFFSET -3.444170 -0.000000 -0.000000
								CHANNELS 3 Zrotation Yrotation Xrotation
								JOINT RightFingerBase
								{
									OFFSET 0.000000 0.000000 0.000000
									CHANNELS 3 Zrotation Yrotation Xrotation
									JOINT RightHandIndex1
									{
										OFFSET -0.622530 -0.000000 -0.000000
										CHANNELS 3 Zrotation Yrotation Xrotation
										End Site
										{
											OFFSET 0.000000 0.000000 0.000000
										}
									}
								}
								JOINT RThumb
								{
									OFFSET 0.000000 0.000000 0.000000
									CHANNELS 3 Zrotation Yrotation Xrotation
									End Site
									{
										OFFSET 0.000000 0.000000 0.000000
									}
								}
							}
						}
					}
				}
			}
		}
	}
}
MOTION
Frames: 7
Frame Time: 0.008333
10.311644 18.545817 -44.079703 -4.735290 -49.199396 8.949648 -0.890434 1.741264 1.950035 -13.925119 -2.894433 -15.824671 -0.916692 10.545214 29.178766 -4.889685 14.820062 -2.529932 0.730800 -5.462000 -15.231100 -3.572968 -2.609605 0.371587 27.738901 4.220251 -10.596635 0.520963 -10.275187 30.170025 7.803527 -25.691287 -6.291063 -0.220500 3.022800 -8.342200 3.562784 0.450389 5.280445 4.879457 1.011255 1.179546 -3.539625 0.180225 -10.411691 3.855942 11.419764 -11.292937 2.577835 14.895390 5.725976 -2.460500 7.415600 3.153400 0.093813 -10.164579 2.522437 -75.323455 8.797944 75.276171 124.272314 -51.233584 -93.673099 -2.115363 1.196214 -0.128790 -1.586529 -41.766330 -0.307500 -7.125000 0.000000 0.000000 -17.927000 -11.237600 22.069800 -0.744159 11.075941 3.319680 73.946723 -5.892718 79.736366 -123.433125 52.205961 -90.779956 -1.066947 -0.226926 -43.755290 22.786055 -66.203215 -21.851700 7.125000 0.000000 0.000000 -156.014000 -9.121300 21.955900 
10.341690 18.534579 -44.078284 -4.721084 -48.198196 8.876246 -0.942242 1.763490 1.937844 -13.797764 -4.001665 -15.310047 -1.081140 10.379105 28.677249 -4.993863 15.030875 -3.109840 0.703700 -5.361900 -14.943800 -3.542669 -2.603332 0.372840 27.811385 4.208100 -10.609282 0.517824 -10.318096 30.320113 7.862365 -25.887881 -7.109442 -0.183300 2.757500 -7.604400 3.636915 0.354268 5.483403 4.926030 0.909275 0.965301 -3.533533 0.114571 -10.597539 3.799177 11.183959 -11.378908 2.597867 14.595409 5.901584 -2.455000 7.278000 3.199000 0.099190 -10.139640 2.531457 -75.368181 9.296762 75.454367 125.101211 -50.907095 -94.324778 -2.108962 1.198559 -0.289965 -1.891935 -41.462257 -0.092500 -7.125000 0.000000 0.000000 -18.058300 -10.934900 22.172700 -0.744337 11.075726 3.325601 74.000954 -5.985900 79.879342 -123.492239 52.190965 -90.834719 -1.065455 -0.247299 -44.303208 22.212595 -65.924528 -21.281700 7.125000 0.000000 0.000000 -156.109200 -8.811500 22.012800 
10.369962 18.523933 -44.065153 -4.689692 -47.281662 8.801802 -0.976630 1.777186 1.926458 -13.764827 -4.659311 -14.955138 -1.211852 10.227700 28.231914 -5.045685 15.133279 -3.385293 0.735200 -5.478100 -15.277400 -3.509754 -2.603201 0.367212 27.804592 4.129827 -10.648921 0.499875 -10.365695 30.475108 7.903933 -26.027295 -7.643045 -0.145700 2.459700 -6.778000 3.510737 0.317763 5.771817 5.178133 0.882782 0.592464 -3.376966 0.094101 -10.871474 3.653900 10.978829 -11.343243 2.630805 14.331055 6.058125 -2.437300 7.158200 3.207100 0.120747 -10.108013 2.567705 -75.268039 10.090461 79.533001 127.061900 -49.688723 -96.729483 -2.177843 0.286808 -8.915479 6.898667 -32.153330 -4.866600 -7.125000 0.000000 0.000000 -12.867500 -2.240700 13.705700 -0.767379 11.063511 3.340648 73.870078 -6.330302 80.067703 -123.701732 52.122354 -90.997615 -1.059324 -0.257550 -44.732426 21.599965 -65.913133 -20.708600 7.125000 0.000000 0.000000 -156.261900 -8.721300 21.888700 
10.399062 18.518491 -44.047528 -4.609450 -46.388038 8.677866 -1.015236 1.797946 1.935089 -13.787637 -5.158370 -14.694304 -1.313481 10.094817 27.832123 -5.054898 15.147665 -3.245761 0.710200 -5.386000 -15.012900 -3.480800 -2.599812 0.376556 27.705481 3.794194 -10.827533 0.451388 -10.426360 30.677396 7.918882 -26.064019 -7.874388 -0.119300 2.227200 -6.134000 3.694392 0.276893 5.520248 5.052356 0.819376 0.725149 -3.477250 0.060545 -10.684921 3.702194 10.831519 -11.404575 2.640556 14.116736 5.945719 -2.454000 7.044100 3.167700 0.131276 -10.129775 2.566762 -75.110377 10.006272 79.376816 126.857255 -49.786977 -96.509219 -2.205109 0.286169 -8.574321 7.582774 -32.741205 -5.338000 -7.125000 0.000000 0.000000 -12.510700 -2.880500 13.441700 -0.762849 11.058221 3.326939 74.030619 -6.180042 80.001348 -123.772728 52.108925 -91.038974 -1.051556 -0.255241 -45.111830 20.699045 -66.337426 -19.921900 7.125000 0.000000 0.000000 -156.556500 -8.968700 21.432900 
10.429464 18.514706 -44.032741 -4.551713 -45.535553 8.544157 -1.042597 1.825926 1.951728 -13.811674 -5.724055 -14.400430 -1.400835 9.974077 27.485461 -5.037809 15.104260 -3.081240 0.540500 -4.710400 -13.084300 -3.445441 -2.602314 0.399548 27.631350 3.577614 -10.950490 0.400143 -10.492586 30.886921 7.990014 -26.271139 -8.126668 -0.129800 2.322200 -6.396900 3.653790 0.291099 5.200689 5.137427 0.802992 1.041947 -3.414723 0.073145 -10.404986 3.646525 10.602832 -11.660174 2.531220 13.827327 5.844885 -2.487100 6.885000 3.164900 0.124854 -10.153701 2.553300 -75.140916 9.663756 79.276840 126.820190 -49.801736 -96.518468 -2.185112 0.281102 -8.487645 7.414649 -32.263972 -5.167800 -7.125000 0.000000 0.000000 -12.579200 -2.386900 13.414400 -0.780498 11.069270 3.314613 74.045504 -5.947738 79.736990 -123.723235 52.117681 -90.999185 -1.050905 -0.264239 -45.286240 19.952688 -66.225096 -19.216200 7.125000 0.000000 0.000000 -156.725300 -8.784500 21.340700 
10.460930 18.506662 -44.019847 -4.453299 -44.726464 8.430296 -1.060428 1.836530 1.958696 -13.879281 -6.003756 -14.253159 -1.469021 9.869130 27.179064 -4.971958 14.958530 -2.739770 0.468400 -4.389800 -12.176000 -3.415139 -2.595334 0.413777 27.565795 3.699466 -10.956372 0.380339 -10.545684 31.059368 8.066465 -26.514534 -8.733245 -0.096400 2.002800 -5.513500 3.517912 0.326040 4.997761 5.225665 0.818174 1.217531 -3.305954 0.100890 -10.236191 3.597040 10.377057 -11.943493 2.469172 13.540750 5.790033 -2.501800 6.731400 3.175100 0.112155 -10.164050 2.546918 -75.166384 9.318459 79.279240 126.771308 -49.842305 -96.458918 -2.192870 0.261515 -8.747025 7.671721 -32.450342 -5.338300 -7.125000 0.000000 0.000000 -12.444100 -2.589100 13.305700 -0.795256 11.081430 3.309199 74.118723 -5.847599 79.523885 -123.571721 52.160123 -90.885587 -1.053244 -0.272661 -45.308956 19.395302 -65.993085 -18.674300 7.125000 0.000000 0.000000 -156.830200 -8.520900 21.358000 
10.492396 18.497790 -44.003759 -4.349658 -43.947303 8.312660 -1.069910 1.836103 1.961903 -13.961024 -5.960140 -14.241399 -1.513751 9.784728 26.934161 -4.797881 14.582777 -2.219867 0.527800 -4.655500 -12.928600 -3.397388 -2.584436 0.413730 27.485281 3.731547 -10.962754 0.362752 -10.589847 31.236594 8.048473 -26.491189 -9.342193 -0.044700 1.364300 -3.751600 3.567526 0.318358 5.006328 5.151692 0.810295 1.191637 -3.335678 0.095234 -10.256149 3.488144 10.163376 -12.176339 2.572472 13.257639 5.848329 -2.453300 6.592000 3.194000 0.112998 -10.163962 2.552818 -75.143984 9.330388 79.294405 126.755087 -49.869250 -96.360766 -2.230744 0.228648 -9.224937 8.508121 -33.301309 -5.949500 -7.125000 0.000000 0.000000 -12.024700 -3.507100 13.020700 -0.789039 11.081056 3.305752 74.364862 -5.865213 79.489471 -123.277260 52.257449 -90.667224 -1.059258 -0.277953 -45.181623 19.244132 -65.707094 -18.504200 7.125000 0.000000 0.000000 -156.825900 -8.259800 21.494100 
